<svg width="1653" height="993" xmlns="http://www.w3.org/2000/svg" xmlns:xlink="http://www.w3.org/1999/xlink" overflow="hidden"><defs><clipPath id="clip0"><rect x="1434" y="260" width="1653" height="993"/></clipPath><clipPath id="clip1"><rect x="1435" y="261" width="1650" height="990"/></clipPath><clipPath id="clip2"><rect x="1435" y="261" width="1650" height="990"/></clipPath><clipPath id="clip3"><rect x="1545" y="460" width="1493" height="583"/></clipPath><clipPath id="clip4"><rect x="1545" y="460" width="1493" height="583"/></clipPath><clipPath id="clip5"><rect x="1435" y="261" width="1650" height="990"/></clipPath><clipPath id="clip6"><rect x="1435" y="261" width="1650" height="990"/></clipPath><clipPath id="clip7"><rect x="1435" y="261" width="1650" height="990"/></clipPath><clipPath id="clip8"><rect x="1435" y="261" width="1650" height="990"/></clipPath><clipPath id="clip9"><rect x="1435" y="261" width="1650" height="990"/></clipPath><clipPath id="clip10"><rect x="1435" y="261" width="1650" height="990"/></clipPath><clipPath id="clip11"><rect x="1435" y="261" width="1650" height="990"/></clipPath><clipPath id="clip12"><rect x="1435" y="261" width="1650" height="990"/></clipPath><clipPath id="clip13"><rect x="1435" y="261" width="1650" height="990"/></clipPath><clipPath id="clip14"><rect x="1435" y="261" width="1650" height="990"/></clipPath><clipPath id="clip15"><rect x="1435" y="261" width="1650" height="990"/></clipPath><clipPath id="clip16"><rect x="1435" y="261" width="1650" height="990"/></clipPath><clipPath id="clip17"><rect x="1435" y="261" width="1650" height="990"/></clipPath><clipPath id="clip18"><rect x="1435" y="261" width="1650" height="990"/></clipPath><clipPath id="clip19"><rect x="1435" y="261" width="1650" height="990"/></clipPath><clipPath id="clip20"><rect x="1435" y="261" width="1650" height="990"/></clipPath><clipPath id="clip21"><rect x="1435" y="261" width="1650" height="990"/></clipPath><clipPath id="clip22"><rect x="1435" y="261" width="1650" height="990"/></clipPath><clipPath id="clip23"><rect x="1435" y="261" width="1650" height="990"/></clipPath><clipPath id="clip24"><rect x="1435" y="261" width="1650" height="990"/></clipPath><clipPath id="clip25"><rect x="1435" y="261" width="1650" height="990"/></clipPath></defs><g clip-path="url(#clip0)" transform="translate(-1434 -260)"><rect x="1435" y="261" width="1650" height="990" fill="#FFFFFF"/><g clip-path="url(#clip1)"><path d="M1545.5 957.532 3034.5 957.532M1545.5 874.529 3034.5 874.529M1545.5 791.526 3034.5 791.526M1545.5 708.523 3034.5 708.523M1545.5 625.521 3034.5 625.521M1545.5 543.518 3034.5 543.518M1545.5 460.5 3034.5 460.5" stroke="#D9D9D9" stroke-width="3.4375" stroke-linejoin="round" stroke-miterlimit="10" fill="none"/></g><g clip-path="url(#clip2)"><path d="M1545.5 1040.5 3034.5 1040.5" stroke="#D9D9D9" stroke-width="3.4375" stroke-linejoin="round" stroke-miterlimit="10" fill="none" fill-rule="evenodd"/></g><g clip-path="url(#clip3)"><path d="M1651 742.024 1864.06 692 2077.07 709.023 2290.08 692 2503.08 792 2715.09 775.025 2928 775.025" stroke="#4472C4" stroke-width="10.3125" stroke-linecap="round" stroke-linejoin="round" stroke-miterlimit="10" fill="none"/></g><g clip-path="url(#clip4)"><path d="M1651 527 1864.06 560.018 2077.07 642.021 2290.08 593.019 2503.08 692 2715.09 659.022 2928 609.02" stroke="#ED7D31" stroke-width="10.3125" stroke-linecap="round" stroke-linejoin="round" stroke-miterlimit="10" fill="none"/></g><g clip-path="url(#clip5)"><text fill="#595959" font-family="Calibri,Calibri_MSFontService,sans-serif" font-weight="400" font-size="41" transform="matrix(1 0 0 1 1485.85 1052)">0</text></g><g clip-path="url(#clip6)"><text fill="#595959" font-family="Calibri,Calibri_MSFontService,sans-serif" font-weight="400" font-size="41" transform="matrix(1 0 0 1 1485.85 969)">5</text></g><g clip-path="url(#clip7)"><text fill="#595959" font-family="Calibri,Calibri_MSFontService,sans-serif" font-weight="400" font-size="41" transform="matrix(1 0 0 1 1464.95 886)">10</text></g><g clip-path="url(#clip8)"><text fill="#595959" font-family="Calibri,Calibri_MSFontService,sans-serif" font-weight="400" font-size="41" transform="matrix(1 0 0 1 1464.95 803)">15</text></g><g clip-path="url(#clip9)"><text fill="#595959" font-family="Calibri,Calibri_MSFontService,sans-serif" font-weight="400" font-size="41" transform="matrix(1 0 0 1 1464.95 720)">20</text></g><g clip-path="url(#clip10)"><text fill="#595959" font-family="Calibri,Calibri_MSFontService,sans-serif" font-weight="400" font-size="41" transform="matrix(1 0 0 1 1464.95 638)">25</text></g><g clip-path="url(#clip11)"><text fill="#595959" font-family="Calibri,Calibri_MSFontService,sans-serif" font-weight="400" font-size="41" transform="matrix(1 0 0 1 1464.95 555)">30</text></g><g clip-path="url(#clip12)"><text fill="#595959" font-family="Calibri,Calibri_MSFontService,sans-serif" font-weight="400" font-size="41" transform="matrix(1 0 0 1 1464.95 472)">35</text></g><g clip-path="url(#clip13)"><text fill="#595959" font-family="Calibri,Calibri_MSFontService,sans-serif" font-weight="400" font-size="41" transform="matrix(1 0 0 1 1630.52 1105)">23</text></g><g clip-path="url(#clip14)"><text fill="#595959" font-family="Calibri,Calibri_MSFontService,sans-serif" font-weight="400" font-size="41" transform="matrix(1 0 0 1 1843.34 1105)">24</text></g><g clip-path="url(#clip15)"><text fill="#595959" font-family="Calibri,Calibri_MSFontService,sans-serif" font-weight="400" font-size="41" transform="matrix(1 0 0 1 2056.16 1105)">25</text></g><g clip-path="url(#clip16)"><text fill="#595959" font-family="Calibri,Calibri_MSFontService,sans-serif" font-weight="400" font-size="41" transform="matrix(1 0 0 1 2268.98 1105)">26</text></g><g clip-path="url(#clip17)"><text fill="#595959" font-family="Calibri,Calibri_MSFontService,sans-serif" font-weight="400" font-size="41" transform="matrix(1 0 0 1 2481.79 1105)">27</text></g><g clip-path="url(#clip18)"><text fill="#595959" font-family="Calibri,Calibri_MSFontService,sans-serif" font-weight="400" font-size="41" transform="matrix(1 0 0 1 2694.61 1105)">28</text></g><g clip-path="url(#clip19)"><text fill="#595959" font-family="Calibri,Calibri_MSFontService,sans-serif" font-weight="400" font-size="41" transform="matrix(1 0 0 1 2907.43 1105)">29</text></g><g clip-path="url(#clip20)"><text fill="#595959" font-family="Yu Gothic,Yu Gothic_MSFontService,sans-serif" font-weight="400" font-size="64" transform="matrix(1 0 0 1 2028.32 372)">グラフ</text></g><g clip-path="url(#clip21)"><text fill="#595959" font-family="Yu Gothic,Yu Gothic_MSFontService,sans-serif" font-weight="400" font-size="64" transform="matrix(1 0 0 1 2235.33 372)">タイトル</text></g><g clip-path="url(#clip22)"><path d="M2069 1185 2157 1185" stroke="#4472C4" stroke-width="10.3125" stroke-linecap="round" stroke-linejoin="round" stroke-miterlimit="10" fill="none" fill-rule="evenodd"/></g><g clip-path="url(#clip23)"><text fill="#595959" font-family="Yu Gothic,Yu Gothic_MSFontService,sans-serif" font-weight="400" font-size="41" transform="matrix(1 0 0 1 2166.54 1197)">最低</text></g><g clip-path="url(#clip24)"><path d="M2287 1185 2375 1185" stroke="#ED7D31" stroke-width="10.3125" stroke-linecap="round" stroke-linejoin="round" stroke-miterlimit="10" fill="none" fill-rule="evenodd"/></g><g clip-path="url(#clip25)"><text fill="#595959" font-family="Yu Gothic,Yu Gothic_MSFontService,sans-serif" font-weight="400" font-size="41" transform="matrix(1 0 0 1 2384.71 1197)">最高</text></g><rect x="1435.5" y="261.5" width="1650" height="990" stroke="#D9D9D9" stroke-width="3.4375" stroke-linejoin="round" stroke-miterlimit="10" fill="none"/></g></svg>